<svg id="Capa_1" enable-background="new 0 0 512 512" height="512" viewBox="0 0 512 512" width="512" xmlns="http://www.w3.org/2000/svg"><g><g><g><g><g><g><g><g><g><circle cx="256" cy="256" fill="#ffce00" r="256"/></g></g></g></g></g></g></g></g><path d="m511.996 257.479-145.111-145.111-41.793 48.744-21.209-21.209-115.232 17.555-75.202 57.351 120.539 120.539-98.598 66.459 109.975 109.975c3.527.145 7.073.218 10.635.218 140.891 0 255.199-113.816 255.996-254.521z" fill="#ffa300"/><g><g><circle cx="345.159" cy="137.332" fill="#333940" r="33.102"/></g></g><g><path d="m381.641 401.808-47.125-83.028h-109.59l-2.788-58.367 46.745-61.237v-24.273h-91.492l-33.743 57.597-30.199-17.691 43.882-74.906h146.552v71.105l-46.175 60.491.586 12.281h96.601l57.185 100.751z" fill="#555a66"/></g><g><path d="m161.505 199.706h153.999v36h-153.999z" fill="#555a66" transform="matrix(.622 -.783 .783 .622 -80.3 269.127)"/></g><path d="m354.895 283.78h-96.601l-.586-12.281 46.175-60.491v-71.105h-98.365v35h43.987l-43.987 55.401v57.896l16.929-21.322 2.479 51.902h109.59l47.125 83.028 30.439-17.277z" fill="#333940"/><g><circle cx="206.328" cy="328.197" fill="#8f929a" r="77.78"/><path d="m206.328 250.417c-.272 0-.539.018-.81.021v155.519c.271.003.538.021.81.021 42.957 0 77.78-34.823 77.78-77.78 0-42.958-34.823-77.781-77.78-77.781z" fill="#787d81"/><path d="m206.328 430.477c-56.397 0-102.28-45.882-102.28-102.28s45.882-102.28 102.28-102.28 102.28 45.883 102.28 102.28-45.882 102.28-102.28 102.28zm0-155.56c-29.378 0-53.28 23.901-53.28 53.28 0 29.378 23.901 53.28 53.28 53.28s53.28-23.901 53.28-53.28-23.901-53.28-53.28-53.28z" fill="#555a66"/><path d="m206.328 225.917c-.271 0-.54.008-.81.01v49.01c.271-.004.538-.021.81-.021 29.378 0 53.28 23.901 53.28 53.28 0 29.378-23.901 53.28-53.28 53.28-.272 0-.539-.017-.81-.021v49.01c.27.002.539.01.81.01 56.397 0 102.28-45.882 102.28-102.28s-45.882-102.278-102.28-102.278z" fill="#333940"/></g></g></svg>