<svg id="Layer_1" enable-background="new 0 0 512.37 512.37" height="512" viewBox="0 0 512.37 512.37" width="512" xmlns="http://www.w3.org/2000/svg"><g><g clip-rule="evenodd" fill-rule="evenodd"><path d="m382.615 36.553c-34.913-34.913-91.517-34.913-126.43 0-87.214-80.535-206.931 39.311-126.43 126.43l94.012 94.012c17.83 17.83 47.005 17.83 64.835 0l94.012-94.012c34.914-34.913 34.914-91.517.001-126.43z" fill="#dc72a9"/><g fill="#ffdcd5"><path d="m252.282 502.37c13.321-103.045-55.623-121.407-76.687-153.641-4.855-7.429-33.429-53.172-38.284-60.602-5.067-7.753-15.537-9.974-23.266-4.933-2.155 1.405-3.678 3.142-4.7 5.109l-38.557-82.092c-12.153-24.74-40.909-10.988-33.355 10.877 5.326 14.925 25.332 85.186 40.938 132.114 11.225 33.754 16.221 42.7 39.306 69.369l35.093 40.542v43.257z"/><path d="m336.776 348.73c-21.064 32.234-90.008 50.595-76.687 153.641h99.513v-43.257l35.093-40.542c23.085-26.669 28.081-35.615 39.306-69.369 15.606-46.928 35.612-117.189 40.938-132.114 7.553-21.865-21.202-35.617-33.355-10.877l-38.557 82.092c-1.022-1.967-2.546-3.704-4.7-5.109-7.729-5.041-18.199-2.82-23.266 4.933-4.857 7.43-33.431 53.172-38.285 60.602z"/></g></g><g><path d="m469.758 185.049c-11.563-4.816-28.121-1.628-37.15 16.754-.026.052-.051.105-.076.158l-33.132 70.542c-11.67-4.826-25.542-.814-32.71 10.154-2.476 3.789-10.619 16.741-19.239 30.453-8.194 13.032-16.666 26.508-19.045 30.149-4.711 7.209-12.763 14.073-22.085 22.021-17.423 14.853-38.88 33.147-50.156 64.336-7.07-19.652-17.785-33.234-27.119-43.133-3.789-4.017-10.117-4.205-14.136-.415-4.019 3.789-4.204 10.118-.416 14.136 15.797 16.753 33.109 42.283 28.814 92.166h-80.538v-33.257c0-2.404-.866-4.727-2.439-6.545l-35.093-40.542c-22.02-25.438-26.562-33.455-37.377-65.98-8.878-26.696-19.166-60.912-27.432-88.404-6.247-20.777-11.185-37.199-13.558-43.862-1.954-5.71.625-9.1 3.433-10.269 4.09-1.705 8.482.995 11.476 7.041l36.742 78.227c-1.333 5.197-1.326 11.856 1.054 20.371 6.86 24.545 15.919 49.363 24.853 68.089 2.379 4.985 8.348 7.098 13.332 4.719 4.984-2.378 7.098-8.347 4.719-13.332-8.46-17.733-17.078-41.374-23.642-64.86-2.779-9.944-.181-11.638.672-12.195 3.083-2.01 7.402-1.081 9.433 2.028 2.372 3.629 10.808 17.047 18.965 30.022l5.396 8.58c2.94 4.675 9.115 6.08 13.789 3.14 4.675-2.941 6.081-9.115 3.14-13.79l-5.393-8.576c-8.582-13.65-16.688-26.543-19.156-30.319-7.168-10.968-21.04-14.982-32.71-10.154l-33.136-70.542c-.025-.053-.05-.105-.076-.158-9.03-18.381-25.588-21.571-37.15-16.754-11.656 4.854-20.425 18.54-14.633 35.305.011.032.022.064.034.096 2.195 6.151 7.323 23.205 13.26 42.952 8.303 27.616 18.637 61.985 27.606 88.957 11.665 35.077 17.445 45.276 41.234 72.758l32.654 37.724v39.53c0 5.523 4.477 10 10 10h206.834c5.523 0 10-4.477 10-10v-39.53l32.654-37.724c23.789-27.482 29.569-37.682 41.234-72.758 8.969-26.971 19.303-61.34 27.606-88.957 5.938-19.747 11.065-36.8 13.26-42.952.012-.032.023-.064.034-.096 5.794-16.765-2.975-30.45-14.631-35.304zm-4.256 28.731c-2.373 6.663-7.311 23.085-13.558 43.862-8.267 27.492-18.554 61.708-27.432 88.404-10.816 32.525-15.357 40.542-37.377 65.98l-35.093 40.542c-1.573 1.818-2.439 4.141-2.439 6.545v33.257h-80.54c-5.579-64.289 24.019-89.523 50.232-111.87 10.062-8.578 19.566-16.68 25.853-26.3 4.708-7.192 33.382-53.094 38.284-60.602 2.032-3.108 6.352-4.036 9.433-2.028.854.557 3.452 2.251.672 12.196-6.563 23.484-15.18 47.125-23.642 64.86-2.378 4.985-.265 10.954 4.719 13.332 4.985 2.378 10.954.266 13.332-4.719 8.936-18.729 17.994-43.546 24.853-68.089 2.38-8.515 2.387-15.174 1.054-20.371l36.741-78.227c2.994-6.047 7.386-8.745 11.476-7.041 2.807 1.17 5.386 4.559 3.432 10.269z"/><path d="m216.696 264.067c21.774 21.774 57.204 21.774 78.978 0l94.013-94.012c86.103-92.364-34.077-223.616-133.502-147.002-99.526-76.645-219.567 54.737-133.501 147.001zm-79.87-220.443c30.957-30.958 81.33-30.958 112.288 0 3.905 3.905 10.237 3.905 14.143 0 77.592-71.408 183.667 34.779 112.288 112.288l-94.013 94.012c-13.254 13.833-37.44 13.833-50.693 0l-94.012-94.012c-30.959-30.958-30.959-81.33-.001-112.288z"/><path d="m240.267 209.711c7.629 0 15.31-1.718 22.213-4.968 4.997-2.353 7.14-8.311 4.788-13.307-2.353-4.997-8.31-7.14-13.307-4.788-20.766 10.178-46.198-5.931-45.834-29.079 0-14.232 9.299-26.335 22.141-30.548v30.549c0 5.523 4.477 10 10 10h33.434l15.392 32.415c2.369 4.989 8.333 7.113 13.322 4.744s7.113-8.333 4.744-13.322l-18.103-38.126c-1.656-3.488-5.172-5.711-9.034-5.711h-29.756v-22.141h25.383c13.268-.528 13.258-19.477 0-20h-35.383c-69.19 2.871-69.136 101.436 0 104.282z"/><path d="m240.275 93.553c19.902-.793 19.887-29.215 0-30h-.008c-19.903.794-19.879 29.216.008 30z"/><path d="m188.407 353.14c-5.523 0-9.996 4.477-9.996 10 .528 13.263 19.479 13.263 20.003 0 0-5.523-4.477-10-10-10z"/></g></g></svg>