<svg viewBox="0 0 512 512" xmlns="http://www.w3.org/2000/svg" xmlns:xlink="http://www.w3.org/1999/xlink"><linearGradient id="a" gradientTransform="matrix(1 0 0 -1 0 -16402)" gradientUnits="userSpaceOnUse" x1="0" x2="512" y1="-16658" y2="-16658"><stop offset="0" stop-color="#31d8ff"/><stop offset="1" stop-color="#ff80ff"/></linearGradient><path d="m512 256c0 141.386719-114.613281 256-256 256s-256-114.613281-256-256 114.613281-256 256-256 256 114.613281 256 256zm0 0" fill="url(#a)"/><g fill="#fff"><path d="m351.890625 364.832031c-7.402344-3.722656-16.417969-.738281-20.140625 6.660157-16.90625 33.621093-50.765625 54.507812-88.363281 54.507812-54.496094 0-98.832031-44.335938-98.832031-98.832031 0-29.191407 12.8125-56.742188 35.148437-75.585938 6.332031-5.34375 7.136719-14.804687 1.796875-21.136719-5.34375-6.335937-14.804688-7.136718-21.140625-1.796874-29.109375 24.558593-45.804687 60.464843-45.804687 98.519531 0 71.039062 57.792968 128.832031 128.832031 128.832031 24.335937 0 48.035156-6.820312 68.542969-19.730469 19.933593-12.546875 36.054687-30.285156 46.621093-51.296875 3.722657-7.402344.738281-16.417968-6.660156-20.140625zm0 0"/><path d="m392.460938 337.332031-85.992188-77.085937c-2.753906-2.464844-6.320312-3.832032-10.015625-3.832032h-64.386719v-19.050781h52.273438c8.28125 0 15-6.714843 15-15 0-8.285156-6.71875-15-15-15h-52.273438v-10.851562c32-6.90625 56.0625-35.414063 56.0625-69.453125 0-39.179688-31.878906-71.058594-71.0625-71.058594s-71.058594 31.878906-71.058594 71.0625c0 34.035156 24.058594 62.546875 56.058594 69.453125v74.898437c0 8.285157 6.714844 15 15 15h73.648438l81.71875 73.253907c2.863281 2.566406 6.441406 3.832031 10.007812 3.832031 4.113282 0 8.210938-1.683594 11.171875-4.988281 5.53125-6.167969 5.015625-15.652344-1.152343-21.179688zm-216.453126-210.269531c0-22.640625 18.417969-41.0625 41.058594-41.0625 22.644532 0 41.0625 18.421875 41.0625 41.0625s-18.417968 41.058594-41.0625 41.058594c-22.640625 0-41.058594-18.421875-41.058594-41.058594zm0 0"/></g></svg>