<svg id="Layer_1" enable-background="new 0 0 511.873 511.873" height="512" viewBox="0 0 511.873 511.873" width="512" xmlns="http://www.w3.org/2000/svg"><g><g clip-rule="evenodd" fill-rule="evenodd"><path d="m358.59 205.716c0-16.569-13.428-30-29.991-30h-.017c-16.564 0-29.991 13.432-29.991 30s13.428 30 29.991 30h.017c16.563.001 29.991-13.431 29.991-30z" fill="#fff"/><path d="m328.582 245.717c-60.677.001-109.88 49.202-109.88 109.88 0 46.56 28.965 86.359 69.857 102.362 12.403 4.854 25.902 7.518 40.023 7.518 15.905 0 32.42-3.744 46.806-10.517 9.967-4.703 14.234-16.595 9.531-26.562s-16.595-14.234-26.562-9.531c-9.556 4.499-19.219 6.611-29.775 6.611-.639 0-1.276-.009-1.911-.026-37.714-1.012-67.969-31.895-67.969-69.854 0-30.933 20.376-58.178 49.879-67.032v67.032c0 11.046 8.954 20 20 20h47.942 24.257l33.157 69.831c4.703 9.967 16.595 14.234 26.562 9.531s14.234-16.595 9.531-26.562l-38.61-81.316c-2.873-6.089-8.578-10.286-15.116-11.266-.961-.144-1.94-.219-2.931-.219h-64.792v-49.879h55.465c11.046 0 20-8.954 20-20s-8.954-20-20-20h-75.464z" fill="#fff"/><g fill="#dc72a9"><path d="m218.702 355.597c0-60.678 49.203-109.879 109.88-109.88h75.465c11.046 0 20 8.954 20 20s-8.954 20-20 20h-55.465v49.879h64.792c.991.001 1.97.075 2.93.22l43.434-43.435c129.814-140.58-63.366-333.554-203.794-203.793-140.58-129.815-333.554 63.366-203.793 203.794l151.539 151.539c22.856 22.856 57.276 27.534 84.868 14.037-40.892-16.002-69.856-55.802-69.856-102.361zm109.88-119.88c-16.564 0-29.991-13.432-29.991-30s13.428-30 29.991-30h.017c16.564 0 29.991 13.432 29.991 30s-13.428 30-29.991 30z"/><path d="m308.581 288.565c-29.503 8.854-49.879 36.099-49.879 67.032 0 37.959 30.255 68.842 67.969 69.853l49.853-49.853h-47.942c-11.046 0-20-8.954-20-20v-67.032z"/></g></g><g><path d="m479.064 424.107-38.599-81.294c-1.774-3.76-4.287-7.042-7.312-9.703l33.657-33.657c60.084-60.085 60.084-157.852 0-217.937-57.785-57.782-150.41-59.999-210.863-6.646-22.266-19.685-49.357-32.337-78.914-36.77-32.103-4.812-64.277.408-93.052 15.1-4.919 2.512-6.87 8.535-4.358 13.454 2.514 4.92 8.538 6.869 13.454 4.358 51.929-26.516 114.539-16.61 155.796 24.647 3.906 3.904 10.236 3.904 14.143 0 131.055-120.605 310.205 58.741 189.651 189.651l-40.286 40.286h-53.799v-29.88h45.465c39.809-1.653 39.778-58.362 0-60h-49.024c27.38-24.07 10.467-69.881-26.442-70.001-38.803.257-54.442 49.721-23.536 72.321-104.04 20.783-131.257 158.526-43.061 217.194-18.619 1.761-37.509-4.667-51.222-18.381l-151.54-151.539c-41.256-41.255-51.162-103.864-24.651-155.793 2.512-4.919.56-10.942-4.359-13.453-4.916-2.512-10.941-.56-13.453 4.359-30.379 57.805-18.587 133.351 28.32 179.029l151.539 151.539c24.352 24.388 61.16 31.128 92.367 17.765 28.72 10.364 62.77 8.535 90.669-4.754 7.236-3.415 12.709-9.442 15.412-16.974 2.702-7.531 2.31-15.664-1.104-22.899-6.449-13.672-21.98-20.204-36.015-15.815l22.718-22.718h13.793l30.436 64.099c7.05 14.938 24.937 21.355 39.874 14.308 7.236-3.415 12.709-9.443 15.411-16.975 2.702-7.53 2.31-15.663-1.104-22.899-.005-.007-.008-.015-.011-.022zm-150.465-238.391c26.527 1.102 26.508 38.91 0 40.001h-.018c-26.532-1.104-26.509-38.918.018-40.001zm-5.819 229.482c-57.718-6.005-74.122-81.932-24.199-111.447v51.846c0 16.542 13.458 30 30 30h23.799zm138.574 25.076c-.897 2.503-2.717 4.506-5.121 5.641-4.965 2.342-10.908.209-13.262-4.776l-33.157-69.831c-1.656-3.488-5.172-5.711-9.033-5.711h-72.199c-5.514 0-10-4.486-10-10v-67.032c.173-6.495-6.702-11.613-12.874-9.578-16.563 4.971-30.792 14.943-41.147 28.839-48.871 67.173 22.589 154.446 98.062 120.084 4.967-2.342 10.91-.21 13.252 4.755 2.343 4.964.21 10.908-4.747 13.248-64.98 31.551-143.225-18.101-142.425-90.317-.001-55.072 44.805-99.878 99.879-99.879h75.466c13.27.551 13.259 19.454 0 20h-55.465c-5.522 0-10 4.478-10 10v49.88c0 5.522 4.478 10 10 10h64.786c3.825.003 7.361 2.261 9.02 5.773l38.599 81.294c1.133 2.405 1.264 5.107.366 7.61z"/><path d="m52.15 98.588c13.268-.529 13.258-19.476 0-20h-.008c-13.267.53-13.249 19.478.008 20z"/></g></g></svg>